<svg xmlns="http://www.w3.org/2000/svg" viewBox="0 0 520 150" fill="none" stroke="currentColor" stroke-width="3.4" stroke-linecap="round" stroke-linejoin="round">
  <!-- PLACEHOLDER: "chimin" as single-stroke paths. Replace with Chimin's real signature; keep one <path> per stroke. -->
  <path d="M46 62 C30 52, 12 66, 16 88 C20 108, 44 112, 58 96"/>
  <path d="M80 28 C76 52, 72 84, 70 108"/>
  <path d="M70 80 C84 62, 108 64, 106 86 C105 96, 104 104, 104 110"/>
  <path d="M132 66 C130 80, 128 96, 128 110"/>
  <path d="M132 44 C133 46, 133 48, 132 50"/>
  <path d="M156 66 C154 82, 152 96, 152 110"/>
  <path d="M154 78 C166 62, 186 66, 184 86 C183 96, 182 104, 182 110"/>
  <path d="M186 78 C198 62, 218 66, 216 86 C215 96, 214 104, 214 110"/>
  <path d="M244 66 C242 80, 240 96, 240 110"/>
  <path d="M244 44 C245 46, 245 48, 244 50"/>
  <path d="M268 66 C266 82, 264 96, 264 110"/>
  <path d="M266 78 C278 62, 298 66, 296 86 C295 96, 294 104, 294 110"/>
  <path d="M320 104 C360 96, 400 100, 440 98"/>
</svg>
